<svg width="32" height="31" viewBox="0 0 32 31" fill="none" xmlns="http://www.w3.org/2000/svg">
<g opacity="0.4" clip-path="url(#clip0_428_26561)">
<path d="M25.3333 3.875H6.66667C5.2 3.875 4 5.0375 4 6.45833V24.5417C4 25.9625 5.2 27.125 6.66667 27.125H25.3333C26.8 27.125 28 25.9625 28 24.5417V6.45833C28 5.0375 26.8 3.875 25.3333 3.875ZM25.3333 24.5417H6.66667V6.45833H25.3333V24.5417Z" fill="#323232"/>
<path d="M14.9999 9.97168H8.33325V11.9092H14.9999V9.97168Z" fill="#323232"/>
<path d="M23.9999 20.3438H17.3333V22.2812H23.9999V20.3438Z" fill="#323232"/>
<path d="M23.9999 17.1143H17.3333V19.0518H23.9999V17.1143Z" fill="#323232"/>
<path d="M10.6667 23.2497H12.6667V20.6663H15.3333V18.7288H12.6667V16.1455H10.6667V18.7288H8V20.6663H10.6667V23.2497Z" fill="#323232"/>
<path d="M18.7856 14.1438L20.6656 12.3225L22.5456 14.1438L23.959 12.7746L22.079 10.9404L23.959 9.11917L22.5456 7.75L20.6656 9.57125L18.7856 7.75L17.3723 9.11917L19.2523 10.9404L17.3723 12.7746L18.7856 14.1438Z" fill="#323232"/>
</g>
<defs>
<clipPath id="clip0_428_26561">
<rect width="32" height="31" fill="white"/>
</clipPath>
</defs>
</svg>
