<svg width="28" height="28" viewBox="0 0 28 28" fill="none" xmlns="http://www.w3.org/2000/svg">
<path d="M20.4154 22.7497C21.704 22.7497 22.7487 21.705 22.7487 20.4163C22.7487 19.1277 21.704 18.083 20.4154 18.083C19.1267 18.083 18.082 19.1277 18.082 20.4163C18.082 21.705 19.1267 22.7497 20.4154 22.7497Z" stroke="#F8D834" stroke-width="2.33333" stroke-linejoin="round"/>
<path fill-rule="evenodd" clip-rule="evenodd" d="M4.66797 20.417H1.16797V6.41699H18.0846V20.417H9.33464" fill="#F8D834"/>
<path d="M4.66797 20.417H1.16797V6.41699H18.0846V20.417H9.33464" stroke="#F8D834" stroke-width="2.33333" stroke-linecap="round" stroke-linejoin="round"/>
<path d="M18.082 20.4167V10.5H23.082L26.832 15.4583V20.4167H23.2219" stroke="#F8D834" stroke-width="2.33333" stroke-linecap="round" stroke-linejoin="round"/>
<path d="M7.0013 22.7497C8.28997 22.7497 9.33464 21.705 9.33464 20.4163C9.33464 19.1277 8.28997 18.083 7.0013 18.083C5.71264 18.083 4.66797 19.1277 4.66797 20.4163C4.66797 21.705 5.71264 22.7497 7.0013 22.7497Z" fill="#F8D834" stroke="#F8D834" stroke-width="2.33333" stroke-linejoin="round"/>
</svg>
