<svg width="104" height="104" viewBox="0 0 104 104" fill="none" xmlns="http://www.w3.org/2000/svg">
<g filter="url(#filter0_d_8303_931)">
<circle cx="54" cy="54" r="30" fill="#F8D834"/>
</g>
<path d="M40.0001 51.5C40.0001 45.701 44.7011 41 50.5001 41C56.299 41 61.0001 45.701 61.0001 51.5C61.0001 57.299 56.299 62 50.5001 62C48.8141 62 47.2185 61.6019 45.8046 60.894L41.8898 61.943C40.7745 62.2418 39.7538 61.2212 40.0527 60.1058L41.1024 56.1881C40.9413 55.8658 40.7963 55.534 40.6685 55.1938C40.2363 54.044 40.0001 52.7989 40.0001 51.5ZM50.5 63.5002C51.1657 63.5002 51.8187 63.446 52.4549 63.3417C53.866 64.384 55.611 65.0002 57.5 65.0002C58.9863 65.0002 60.3808 64.6195 61.5942 63.9511C61.8204 63.8266 62.086 63.7943 62.3355 63.8611L65.7913 64.7871L64.8647 61.3289C64.7979 61.0797 64.83 60.8144 64.9543 60.5883C65.6206 59.3763 66 57.984 66 56.5002C66 53.6023 64.5498 51.0431 62.3355 49.5087C62.1783 48.5672 61.9114 47.6628 61.5485 46.8091C65.3376 48.3939 68 52.1361 68 56.5002C68 57.799 67.7637 59.0442 67.3315 60.194C67.2037 60.5341 67.0587 60.8659 66.8976 61.1883L67.9473 65.106C68.2462 66.2214 67.2255 67.242 66.1102 66.9431L62.1954 65.8941C60.7815 66.6021 59.186 67.0002 57.5 67.0002C54.3758 67.0002 51.5704 65.6358 49.647 63.4703C49.9287 63.4901 50.2132 63.5002 50.5 63.5002Z" fill="#33475B"/>
<defs>
<filter id="filter0_d_8303_931" x="0" y="0" width="108" height="108" filterUnits="userSpaceOnUse" color-interpolation-filters="sRGB">
<feFlood flood-opacity="0" result="BackgroundImageFix"/>
<feColorMatrix in="SourceAlpha" type="matrix" values="0 0 0 0 0 0 0 0 0 0 0 0 0 0 0 0 0 0 127 0" result="hardAlpha"/>
<feOffset/>
<feGaussianBlur stdDeviation="12"/>
<feComposite in2="hardAlpha" operator="out"/>
<feColorMatrix type="matrix" values="0 0 0 0 0.137255 0 0 0 0 0.12549 0 0 0 0 0.109804 0 0 0 0.12 0"/>
<feBlend mode="normal" in2="BackgroundImageFix" result="effect1_dropShadow_8303_931"/>
<feBlend mode="normal" in="SourceGraphic" in2="effect1_dropShadow_8303_931" result="shape"/>
</filter>
</defs>
</svg>
