<svg width="28" height="26" viewBox="0 0 28 26" fill="none" xmlns="http://www.w3.org/2000/svg">
<path d="M5.25814e-05 10.5C5.25814e-05 4.70101 4.70106 0 10.5001 0C16.299 0 21.0001 4.70101 21.0001 10.5C21.0001 16.299 16.299 21 10.5001 21C8.81406 21 7.2185 20.6019 5.80465 19.894L1.88982 20.943C0.774473 21.2418 -0.246156 20.2212 0.0527042 19.1058L1.10245 15.1881C0.941345 14.8658 0.796346 14.534 0.668492 14.1938C0.236317 13.044 5.25814e-05 11.7989 5.25814e-05 10.5ZM10.5 22.5002C11.1657 22.5002 11.8187 22.446 12.4549 22.3417C13.866 23.384 15.611 24.0002 17.5 24.0002C18.9863 24.0002 20.3808 23.6195 21.5942 22.9511C21.8204 22.8266 22.086 22.7943 22.3355 22.8611L25.7913 23.7871L24.8647 20.3289C24.7979 20.0797 24.83 19.8144 24.9543 19.5883C25.6206 18.3763 26 16.984 26 15.5002C26 12.6023 24.5498 10.0431 22.3355 8.50872C22.1783 7.5672 21.9114 6.6628 21.5485 5.80908C25.3376 7.39386 28 11.1361 28 15.5002C28 16.799 27.7637 18.0442 27.3315 19.194C27.2037 19.5341 27.0587 19.8659 26.8976 20.1883L27.9473 24.106C28.2462 25.2214 27.2255 26.242 26.1102 25.9431L22.1954 24.8941C20.7815 25.6021 19.186 26.0002 17.5 26.0002C14.3758 26.0002 11.5704 24.6358 9.64697 22.4703C9.92875 22.4901 10.2132 22.5002 10.5 22.5002Z" fill="#33475B"/>
</svg>
