<svg width="21" height="21" viewBox="0 0 21 21" fill="none" xmlns="http://www.w3.org/2000/svg">
<path d="M9.00036 15.5003C9.00036 14.2113 9.37553 13.01 10.0226 11.9996L2.25278 12.0002C1.01076 12.0002 0.00390625 13.007 0.00390625 14.2491V15.169C0.00390625 15.7411 0.182312 16.2989 0.514274 16.7648C2.05643 18.9292 4.5794 20.0013 8.00036 20.0013C8.93168 20.0013 9.79657 19.9219 10.5921 19.7618C9.60059 18.6207 9.00036 17.1306 9.00036 15.5003ZM13.0004 5.00488C13.0004 2.24346 10.7618 0.00488281 8.00036 0.00488281C5.23894 0.00488281 3.00036 2.24346 3.00036 5.00488C3.00036 7.76631 5.23894 10.0049 8.00036 10.0049C10.7618 10.0049 13.0004 7.76631 13.0004 5.00488ZM21.0004 15.5002C21.0004 12.4627 18.5379 10.0002 15.5004 10.0002C12.4628 10.0002 10.0004 12.4627 10.0004 15.5002C10.0004 18.5378 12.4628 21.0002 15.5004 21.0002C18.5379 21.0002 21.0004 18.5378 21.0004 15.5002ZM15.4105 12.0083L15.5004 12.0002L15.5902 12.0083C15.7943 12.0453 15.9553 12.2063 15.9923 12.4104L16.0004 12.5002L15.9994 15.0002H18.5043L18.5942 15.0083C18.7982 15.0453 18.9592 15.2063 18.9962 15.4104L19.0043 15.5002L18.9962 15.5901C18.9592 15.7942 18.7982 15.9551 18.5942 15.9922L18.5043 16.0002H15.9994L16.0004 18.5002L15.9923 18.5901C15.9553 18.7942 15.7943 18.9551 15.5902 18.9922L15.5004 19.0002L15.4105 18.9922C15.2064 18.9551 15.0455 18.7942 15.0084 18.5901L15.0004 18.5002L14.9994 16.0002H12.5043L12.4144 15.9922C12.2103 15.9551 12.0494 15.7942 12.0123 15.5901L12.0043 15.5002L12.0123 15.4104C12.0494 15.2063 12.2103 15.0453 12.4144 15.0083L12.5043 15.0002H14.9994L15.0004 12.5002L15.0084 12.4104C15.0455 12.2063 15.2064 12.0453 15.4105 12.0083Z" fill="white"/>
</svg>
