<svg width="21" height="20" viewBox="0 0 21 20" fill="none" xmlns="http://www.w3.org/2000/svg">
<path d="M3 2.25C3 1.00736 4.00736 0 5.25 0H14.75C15.9926 0 17 1.00736 17 2.25V11H21V14.75C21 16.5449 19.5449 18 17.75 18H10.9782C11.625 16.9897 12 15.7886 12 14.5C12 12.4896 11.0873 10.6923 9.65357 9.5H12.75C13.1642 9.5 13.5 9.16421 13.5 8.75C13.5 8.33579 13.1642 8 12.75 8H7.25C7.09066 8 6.94293 8.04969 6.82145 8.13442C6.39476 8.0463 5.95279 8 5.5 8C4.6141 8 3.76959 8.17723 3 8.49816V2.25ZM17 16.5H17.75C18.7165 16.5 19.5 15.7165 19.5 14.75V12.5H17V16.5ZM6.5 4.75C6.5 5.16421 6.83579 5.5 7.25 5.5H12.75C13.1642 5.5 13.5 5.16421 13.5 4.75C13.5 4.33579 13.1642 4 12.75 4H7.25C6.83579 4 6.5 4.33579 6.5 4.75ZM11 14.5C11 11.4624 8.53757 9 5.5 9C2.46243 9 0 11.4624 0 14.5C0 17.5376 2.46243 20 5.5 20C8.53757 20 11 17.5376 11 14.5ZM6.00065 15L6.00111 17.5035C6.00111 17.7797 5.77725 18.0035 5.50111 18.0035C5.22497 18.0035 5.00111 17.7797 5.00111 17.5035L5.00065 15H2.4956C2.21973 15 1.99609 14.7762 1.99609 14.5C1.99609 14.2239 2.21973 14 2.4956 14H5.00046L5 11.4993C5 11.2231 5.22386 10.9993 5.5 10.9993C5.77614 10.9993 6 11.2231 6 11.4993L6.00046 14H8.49659C8.77246 14 8.99609 14.2239 8.99609 14.5C8.99609 14.7762 8.77246 15 8.49659 15H6.00065Z" fill="#23201C"/>
</svg>
