<svg width="113" height="30" viewBox="0 0 113 30" fill="none" xmlns="http://www.w3.org/2000/svg">
<path d="M22.2331 1.02008H30.5825V5.52482H22.1208H22.1205C21.7876 5.52498 21.4589 5.45108 21.1581 5.30848C20.8572 5.16588 20.5919 4.95815 20.3813 4.70034C20.1707 4.44253 20.0201 4.1411 19.9404 3.81788C19.861 3.49608 19.8539 3.1607 19.9196 2.83586C20.0348 2.31475 20.3265 1.84938 20.7454 1.51847C21.1653 1.18665 21.6873 1.01051 22.2224 1.01999L22.2224 1.02008H22.2331Z" fill="#F8D834" stroke="#F8D834" stroke-width="1.20722"/>
<path d="M6.93776 8.99462L6.93775 8.99472H6.9488H28.16H28.2001H33.6614V29.1431H26.2434C25.9372 29.1427 25.6343 29.0799 25.3532 28.9585C25.072 28.8371 24.8186 28.6597 24.6084 28.437C24.3982 28.2144 24.2356 27.9512 24.1305 27.6636C24.0266 27.3791 23.9811 27.0766 23.9968 26.7741C24.0523 26.1835 24.3285 25.6353 24.7705 25.2393C25.215 24.841 25.7941 24.6262 26.3909 24.6383L26.3909 24.6384H26.4031C26.8419 24.6384 27.2627 24.4641 27.573 24.1538C27.8833 23.8435 28.0576 23.4227 28.0576 22.9838C28.0576 22.5429 27.8825 22.12 27.5707 21.8082C27.2589 21.4965 26.836 21.3213 26.3951 21.3213H18.3738C18.041 21.3199 17.7125 21.2451 17.4119 21.1021C17.111 20.959 16.8455 20.7511 16.6343 20.4934C16.4232 20.2356 16.2716 19.9344 16.1905 19.6112C16.11 19.2906 16.1008 18.9562 16.1636 18.6316C16.282 18.1112 16.5752 17.6469 16.9946 17.3165C17.416 16.9845 17.9389 16.8079 18.4754 16.8165L18.4753 16.8166H18.485H26.4111C26.8498 16.8166 27.2708 16.6431 27.5823 16.3341C27.8937 16.025 28.0703 15.6053 28.0737 15.1666L28.0737 15.1623C28.0738 14.9397 28.0292 14.7193 27.9425 14.5142C27.8558 14.3091 27.7288 14.1235 27.569 13.9685C27.4093 13.8134 27.22 13.6921 27.0125 13.6115L26.7941 14.1743L27.0125 13.6115C26.8081 13.5322 26.5901 13.4941 26.3709 13.4994H6.84451H6.84425C6.51028 13.4996 6.18046 13.4255 5.87868 13.2824C5.57688 13.1394 5.31067 12.9311 5.09932 12.6725L4.63196 13.0545L5.09932 12.6725C4.88797 12.4139 4.73677 12.1115 4.65667 11.7873C4.57699 11.4648 4.56963 11.1288 4.6351 10.8031C4.75178 10.2836 5.0439 9.82009 5.46236 9.49064C5.88223 9.16008 6.40347 8.98484 6.93776 8.99462Z" fill="#F8D834" stroke="#F8D834" stroke-width="1.20722"/>
<path d="M12.423 17.6286L12.8498 17.2017L12.423 17.6286C12.8454 18.051 13.0827 18.6238 13.0827 19.2212C13.0827 19.6667 12.9506 20.1021 12.7031 20.4725C12.4556 20.843 12.1038 21.1316 11.6923 21.3021C11.2807 21.4726 10.8278 21.5172 10.3909 21.4303C9.95402 21.3434 9.55268 21.1289 9.23768 20.8139L8.81086 21.2407L9.23768 20.8139C8.92268 20.4989 8.70816 20.0975 8.62125 19.6606C8.53435 19.2237 8.57896 18.7708 8.74944 18.3593C8.91992 17.9477 9.20859 17.5959 9.57899 17.3484C9.94939 17.1009 10.3849 16.9688 10.8303 16.9688C11.4277 16.9688 12.0006 17.2062 12.423 17.6286Z" fill="#F8D834" stroke="#F8D834" stroke-width="1.20722"/>
<path d="M4.44864 17.6286L4.87546 17.2017L4.44864 17.6286C4.87104 18.051 5.10834 18.6238 5.10834 19.2212C5.10834 19.6667 4.97624 20.1021 4.72874 20.4725C4.48124 20.843 4.12948 21.1316 3.71793 21.3021C3.30636 21.4726 2.85348 21.5172 2.41657 21.4303C1.97965 21.3434 1.57832 21.1289 1.26332 20.8139L0.836498 21.2407L1.26331 20.8139C0.948315 20.4989 0.733792 20.0975 0.646885 19.6606C0.55998 19.2237 0.604594 18.7708 0.775075 18.3593C0.945554 17.9477 1.23423 17.5959 1.60462 17.3484C1.97502 17.1009 2.4105 16.9688 2.85598 16.9688C3.45334 16.9688 4.02624 17.2062 4.44864 17.6286Z" fill="#F8D834" stroke="#F8D834" stroke-width="1.20722"/>
<path d="M17.7007 28.7399L17.583 29.3319L17.7007 28.7399C17.2638 28.6529 16.8625 28.4384 16.5475 28.1234L16.1207 28.5502L16.5475 28.1234C16.2325 27.8084 16.018 27.4071 15.9311 26.9702C15.8442 26.5333 15.8888 26.0804 16.0592 25.6688C16.2297 25.2573 16.5184 24.9055 16.8888 24.658C17.2592 24.4105 17.6947 24.2784 18.1401 24.2784C18.7375 24.2784 19.3104 24.5157 19.7328 24.9381C20.1552 25.3605 20.3925 25.9334 20.3925 26.5308C20.3925 26.9763 20.2604 27.4117 20.0129 27.7821C19.7654 28.1525 19.4137 28.4412 19.0021 28.6117C18.5905 28.7822 18.1376 28.8268 17.7007 28.7399Z" fill="#F8D834" stroke="#F8D834" stroke-width="1.20722"/>
<path d="M17.7007 28.7399L17.583 29.3319L17.7007 28.7399C17.2638 28.6529 16.8625 28.4384 16.5475 28.1234L16.1207 28.5502L16.5475 28.1234C16.2325 27.8084 16.018 27.4071 15.9311 26.9702C15.8442 26.5333 15.8888 26.0804 16.0592 25.6688C16.2297 25.2573 16.5184 24.9055 16.8888 24.658C17.2592 24.4105 17.6947 24.2784 18.1401 24.2784C18.7375 24.2784 19.3104 24.5157 19.7328 24.9381C20.1552 25.3605 20.3925 25.9334 20.3925 26.5308C20.3925 26.9763 20.2604 27.4117 20.0129 27.7821C19.7654 28.1525 19.4137 28.4412 19.0021 28.6117C18.5905 28.7822 18.1376 28.8268 17.7007 28.7399Z" fill="#F8D834" stroke="#F8D834" stroke-width="1.20722"/>
<path d="M37.8784 29.5917V1.08008H48.9894C58.0066 1.08008 63.6784 6.88027 63.6784 15.1754C63.6784 23.4706 57.806 29.6157 48.9894 29.6157L37.8784 29.5917ZM45.3794 23.1176H48.5883C53.5462 23.1176 56.009 20.5344 56.009 15.1754C56.009 10.1374 53.474 7.55415 48.5883 7.55415H45.3794V23.1176Z" fill="white"/>
<path d="M65.1243 29.5917V1.08008H71.9995V29.5917H65.1243Z" fill="white"/>
<path d="M89.0541 29.7543H81.505L73.7634 8.39062H81.152L85.436 22.0287L89.8082 8.39062H96.7155L89.0541 29.7543Z" fill="white"/>
<path d="M105.098 29.7961H98.3511V8.43251H104.584V12.203C105.502 10.8603 106.775 9.79982 108.262 9.14085C109.748 8.48187 111.389 8.25046 113 8.47262V15.3398C108.187 14.8665 105.138 15.2195 105.138 19.9446L105.098 29.7961Z" fill="white"/>
<path d="M30.7664 0.416016C30.2015 0.416016 29.6493 0.583521 29.1797 0.89734C28.71 1.21116 28.344 1.65719 28.1278 2.17905C27.9116 2.70091 27.8551 3.27516 27.9653 3.82917C28.0755 4.38317 28.3475 4.89205 28.7469 5.29146C29.1463 5.69088 29.6552 5.96289 30.2092 6.07309C30.7632 6.18329 31.3374 6.12673 31.8593 5.91056C32.3812 5.6944 32.8272 5.32835 33.141 4.85869C33.4548 4.38903 33.6224 3.83686 33.6224 3.272C33.6202 2.5152 33.3187 1.79 32.7835 1.25486C32.2484 0.719716 31.5232 0.418133 30.7664 0.416016Z" fill="white"/>
<path d="M34.6973 8.39062H27.9104V29.7543H34.6973V8.39062Z" fill="white"/>
</svg>
