<svg width="17" height="20" viewBox="0 0 17 20" fill="none" xmlns="http://www.w3.org/2000/svg">
<path d="M10.0282 19.2688C9.54833 19.7259 8.78876 19.7075 8.33165 19.2276L0.329519 10.8268C-0.111958 10.3634 -0.111958 9.63499 0.32952 9.17152L8.33166 0.770777C8.78876 0.290902 9.54834 0.272444 10.0282 0.72955C10.5081 1.18666 10.5265 1.94623 10.0694 2.4261L2.85569 9.99918L10.0694 17.5723C10.5265 18.0521 10.5081 18.8117 10.0282 19.2688ZM16.4298 19.2704C15.9499 19.7275 15.1903 19.709 14.7332 19.2292L6.73108 10.8284C6.2896 10.3649 6.2896 9.63655 6.73108 9.17308L14.7332 0.772341C15.1903 0.292466 15.9499 0.274007 16.4298 0.731113C16.9097 1.18822 16.9281 1.94779 16.471 2.42767L9.25726 10.0007L16.471 17.5738C16.9281 18.0537 16.9096 18.8133 16.4298 19.2704Z" fill="#242424"/>
</svg>
