<svg width="20" height="22" viewBox="0 0 20 22" fill="none" xmlns="http://www.w3.org/2000/svg">
<path d="M9.99994 0C14.6097 0 18.3625 3.66899 18.4974 8.24605L18.5012 8.50124L18.5009 13.113L19.915 16.757C19.9531 16.8554 19.9789 16.958 19.9919 17.0624L20.0016 17.22C20.0016 17.8827 19.4979 18.4278 18.8525 18.4934L18.7216 18.5L13.5014 18.5011C13.5014 20.4348 11.9337 22.0025 9.99994 22.0025C8.13062 22.0025 6.60343 20.5376 6.5037 18.6932L6.49838 18.499L1.27473 18.5C1.11602 18.5 0.958698 18.4705 0.810783 18.413C0.193107 18.1727 -0.132364 17.5057 0.0404918 16.8804L0.0817687 16.7561L1.49794 13.112L1.4987 8.50124C1.4987 3.80614 5.30483 0 9.99994 0ZM11.9959 18.6504L12.0004 18.499L7.99852 18.5011C7.99852 19.6064 8.89458 20.5025 9.99994 20.5025C11.0551 20.5025 11.9195 19.686 11.9959 18.6504ZM9.99994 1.5C6.21382 1.5 3.12962 4.50532 3.00276 8.26055L2.9987 8.50124V13.2534C2.9987 13.3154 2.99101 13.377 2.9759 13.4369L2.9477 13.5252L1.59594 16.999H18.3999L17.052 13.5246C17.0296 13.467 17.0145 13.4069 17.0069 13.3457L17.0012 13.2534V8.50124C17.0012 4.63456 13.8666 1.5 9.99994 1.5Z" fill="#D6D6D6"/>
</svg>
