<svg width="28" height="28" viewBox="0 0 28 28" fill="none" xmlns="http://www.w3.org/2000/svg">
<g opacity="0.4">
<path d="M14.0001 11.6667C16.2552 11.6667 18.0834 9.8385 18.0834 7.58333C18.0834 5.32817 16.2552 3.5 14.0001 3.5C11.7449 3.5 9.91675 5.32817 9.91675 7.58333C9.91675 9.8385 11.7449 11.6667 14.0001 11.6667Z" stroke="#23201C" stroke-width="2.33333" stroke-linecap="round" stroke-linejoin="round"/>
<path d="M3.5 23.7997V24.4997H24.5V23.7997C24.5 21.1861 24.5 19.8793 23.9914 18.8811C23.544 18.003 22.83 17.2891 21.952 16.8416C20.9537 16.333 19.6469 16.333 17.0333 16.333H10.9667C8.35309 16.333 7.0463 16.333 6.04804 16.8416C5.16995 17.2891 4.45605 18.003 4.00864 18.8811C3.5 19.8793 3.5 21.1861 3.5 23.7997Z" stroke="#23201C" stroke-width="2.33333" stroke-linecap="round" stroke-linejoin="round"/>
</g>
</svg>
