<svg width="17" height="20" viewBox="0 0 17 20" fill="none" xmlns="http://www.w3.org/2000/svg">
<path d="M6.97179 0.731179C7.45166 0.274073 8.21124 0.292532 8.66834 0.772408L16.6705 9.17315C17.112 9.63662 17.112 10.365 16.6705 10.8285L8.66834 19.2292C8.21124 19.7091 7.45166 19.7276 6.97179 19.2705C6.49191 18.8133 6.47345 18.0538 6.93056 17.5739L14.1443 10.0008L6.93056 2.42773C6.47345 1.94786 6.49191 1.18828 6.97179 0.731179ZM0.570225 0.729617C1.0501 0.272511 1.80967 0.29097 2.26678 0.770846L10.2689 9.17159C10.7104 9.63506 10.7104 10.3634 10.2689 10.8269L2.26678 19.2277C1.80967 19.7075 1.0501 19.726 0.570225 19.2689C0.0903492 18.8118 0.0718911 18.0522 0.528997 17.5723L7.74274 9.99925L0.528997 2.42617C0.0718913 1.9463 0.0903491 1.18672 0.570225 0.729617Z" fill="#242424"/>
</svg>
