<svg width="28" height="28" viewBox="0 0 28 28" fill="none" xmlns="http://www.w3.org/2000/svg">
<g opacity="0.4">
<path d="M10.6655 25.183C8.71068 24.601 6.97065 23.5205 5.59284 22.0888C6.10682 21.4796 6.41659 20.6926 6.41659 19.8331C6.41659 17.9001 4.84958 16.3331 2.91659 16.3331C2.79966 16.3331 2.68406 16.3389 2.57008 16.3501C2.4148 15.5909 2.33325 14.8049 2.33325 13.9998C2.33325 12.7803 2.52037 11.6044 2.86746 10.4995C2.88381 10.4997 2.90018 10.4998 2.91659 10.4998C4.84958 10.4998 6.41659 8.93279 6.41659 6.99979C6.41659 6.44487 6.28745 5.92012 6.05758 5.45394C7.40682 4.19942 9.05356 3.26056 10.8803 2.75488C11.4591 3.88949 12.6388 4.66646 13.9999 4.66646C15.361 4.66646 16.5407 3.88949 17.1196 2.75488C18.9463 3.26056 20.593 4.19942 21.9423 5.45394C21.7124 5.92012 21.5833 6.44487 21.5833 6.99979C21.5833 8.93279 23.1503 10.4998 25.0833 10.4998C25.0997 10.4998 25.116 10.4997 25.1324 10.4995C25.4795 11.6044 25.6666 12.7803 25.6666 13.9998C25.6666 14.8049 25.585 15.5909 25.4298 16.3501C25.3158 16.3389 25.2002 16.3331 25.0833 16.3331C23.1503 16.3331 21.5833 17.9001 21.5833 19.8331C21.5833 20.6926 21.893 21.4796 22.407 22.0888C21.0292 23.5205 19.2892 24.601 17.3344 25.183C16.8832 23.7717 15.5609 22.7498 13.9999 22.7498C12.4389 22.7498 11.1166 23.7717 10.6655 25.183Z" stroke="#23201C" stroke-width="2.33333" stroke-linejoin="round"/>
<path d="M14.0001 18.0837C16.2552 18.0837 18.0834 16.2555 18.0834 14.0003C18.0834 11.7452 16.2552 9.91699 14.0001 9.91699C11.7449 9.91699 9.91675 11.7452 9.91675 14.0003C9.91675 16.2555 11.7449 18.0837 14.0001 18.0837Z" stroke="#23201C" stroke-width="2.33333" stroke-linejoin="round"/>
</g>
</svg>
