<svg width="58" height="58" viewBox="0 0 58 58" fill="none" xmlns="http://www.w3.org/2000/svg">
<g filter="url(#filter0_d_8303_61)">
<path d="M29 51C41.1503 51 51 41.1503 51 29C51 16.8497 41.1503 7 29 7C16.8497 7 7 16.8497 7 29C7 41.1503 16.8497 51 29 51ZM29 8.30988C40.4268 8.30988 49.6901 17.5732 49.6901 29C49.6901 40.4268 40.4268 49.6901 29 49.6901C17.5732 49.6901 8.30988 40.4268 8.30988 29C8.30988 17.5732 17.5732 8.30988 29 8.30988Z" fill="#F8D834"/>
</g>
<defs>
<filter id="filter0_d_8303_61" x="-4.76837e-07" y="-4.76837e-07" width="58" height="58" filterUnits="userSpaceOnUse" color-interpolation-filters="sRGB">
<feFlood flood-opacity="0" result="BackgroundImageFix"/>
<feColorMatrix in="SourceAlpha" type="matrix" values="0 0 0 0 0 0 0 0 0 0 0 0 0 0 0 0 0 0 127 0" result="hardAlpha"/>
<feOffset/>
<feGaussianBlur stdDeviation="3.5"/>
<feComposite in2="hardAlpha" operator="out"/>
<feColorMatrix type="matrix" values="0 0 0 0 1 0 0 0 0 0.882353 0 0 0 0 0.278431 0 0 0 0.64 0"/>
<feBlend mode="normal" in2="BackgroundImageFix" result="effect1_dropShadow_8303_61"/>
<feBlend mode="normal" in="SourceGraphic" in2="effect1_dropShadow_8303_61" result="shape"/>
</filter>
</defs>
</svg>
